<svg width="80" height="80" viewBox="0 0 80 80" fill="none" xmlns="http://www.w3.org/2000/svg">
<g id="clarity:email-solid" clip-path="url(#clip0_521_156)">
<path id="Vector" d="M71.8443 13.3335C71.5414 13.3023 71.2361 13.3023 70.9332 13.3335H8.71098C8.31219 13.3396 7.91604 13.3994 7.5332 13.5112L39.6443 45.489L71.8443 13.3335Z" fill="black"/>
<path id="Vector_2" d="M75.1335 16.4224L42.778 48.6446C41.9452 49.4724 40.8188 49.937 39.6446 49.937C38.4705 49.937 37.344 49.4724 36.5113 48.6446L4.44462 16.6668C4.34604 17.0291 4.29377 17.4025 4.28906 17.7779V62.2224C4.28906 63.4011 4.75732 64.5316 5.59081 65.3651C6.42431 66.1986 7.55477 66.6668 8.73351 66.6668H70.9557C72.1345 66.6668 73.2649 66.1986 74.0984 65.3651C74.9319 64.5316 75.4002 63.4011 75.4002 62.2224V17.7779C75.3825 17.3149 75.2925 16.8576 75.1335 16.4224ZM11.778 62.2224H8.68906V59.0446L24.8446 43.0224L27.978 46.1557L11.778 62.2224ZM70.9113 62.2224H67.8002L51.6002 46.1557L54.7335 43.0224L70.8891 59.0446L70.9113 62.2224Z" fill="black"/>
</g>
<defs>
<clipPath id="clip0_521_156">
<rect width="80" height="80" fill="white"/>
</clipPath>
</defs>
</svg>
