<svg width="80" height="80" viewBox="0 0 80 80" fill="none" xmlns="http://www.w3.org/2000/svg">
<g id="icomoon-free:linkedin" clip-path="url(#clip0_521_120)">
<path id="Vector" d="M72.5 0H7.5C3.375 0 0 3.375 0 7.5V72.5C0 76.625 3.375 80 7.5 80H72.5C76.625 80 80 76.625 80 72.5V7.5C80 3.375 76.625 0 72.5 0ZM30 65H20V30H30V65ZM25 25C23.6739 25 22.4021 24.4732 21.4645 23.5355C20.5268 22.5979 20 21.3261 20 20C20 18.6739 20.5268 17.4021 21.4645 16.4645C22.4021 15.5268 23.6739 15 25 15C26.3261 15 27.5979 15.5268 28.5355 16.4645C29.4732 17.4021 30 18.6739 30 20C30 21.3261 29.4732 22.5979 28.5355 23.5355C27.5979 24.4732 26.3261 25 25 25ZM65 65H55V45C55 43.6739 54.4732 42.4021 53.5355 41.4645C52.5979 40.5268 51.3261 40 50 40C48.6739 40 47.4021 40.5268 46.4645 41.4645C45.5268 42.4021 45 43.6739 45 45V65H35V30H45V36.205C47.06 33.375 50.22 30 53.75 30C59.97 30 65 35.595 65 42.5V65Z" fill="black"/>
</g>
<defs>
<clipPath id="clip0_521_120">
<rect width="80" height="80" fill="white"/>
</clipPath>
</defs>
</svg>
