<svg width="80" height="80" viewBox="0 0 80 80" fill="none" xmlns="http://www.w3.org/2000/svg">
<g id="icon-park-twotone:dribble">
<g id="Mask group">
<mask id="mask0_521_143" style="mask-type:luminance" maskUnits="userSpaceOnUse" x="0" y="0" width="80" height="79">
<g id="Group">
<g id="Group_2">
<path id="Vector" d="M78 39.5C78.0065 44.571 77.008 49.5931 75.0622 54.276C73.1164 58.9589 70.2619 63.2098 66.6637 66.783C63.0948 70.3456 58.8589 73.1699 54.198 75.0945C49.5371 77.0192 44.5426 78.0065 39.5 78C18.2365 78 1.00004 60.7635 1.00004 39.5C0.986574 29.6282 4.77856 20.131 11.5875 12.9831C15.1802 9.19205 19.5087 6.17393 24.3082 4.11349C29.1076 2.05305 34.277 0.993616 39.5 1.00003C44.5426 0.993502 49.5371 1.98079 54.198 3.90546C58.8589 5.83013 63.0948 8.65445 66.6637 12.217C70.2619 15.7902 73.1164 20.0411 75.0622 24.724C77.008 29.4069 78.0065 34.429 78 39.5Z" fill="white" stroke="black" stroke-width="2" stroke-linecap="round" stroke-linejoin="round"/>
<g id="Vector_2">
<path d="M78.0008 39.4999C72.3836 39.4999 56.8874 37.3824 43.0178 43.4712C27.9508 50.0874 17.0419 60.3495 12.2871 66.7328" fill="white"/>
<path d="M78.0008 39.4999C72.3836 39.4999 56.8874 37.3824 43.0178 43.4712C27.9508 50.0874 17.0419 60.3495 12.2871 66.7328" stroke="black" stroke-width="2" stroke-linecap="round" stroke-linejoin="round"/>
</g>
<g id="Vector_3">
<path d="M25.0625 3.79932C31.0877 9.36064 44.2355 23.519 49.125 37.5753C54.0145 51.6317 55.824 68.9143 56.9405 73.8327" fill="white"/>
<path d="M25.0625 3.79932C31.0877 9.36064 44.2355 23.519 49.125 37.5753C54.0145 51.6317 55.824 68.9143 56.9405 73.8327" stroke="black" stroke-width="2" stroke-linecap="round" stroke-linejoin="round"/>
</g>
<g id="Vector_4">
<path d="M1.29688 34.6878C8.56952 35.1267 27.8214 35.5213 40.1414 30.2603C52.4614 24.9993 63.0624 15.3223 66.6987 12.252M3.88792 54.1553C7.28037 62.3672 13.3988 69.1592 21.2129 73.388L3.88792 54.1553Z" fill="white"/>
<path d="M1.29688 34.6878C8.56952 35.1267 27.8214 35.5213 40.1414 30.2603C52.4614 24.9993 63.0624 15.3223 66.6987 12.252M3.88792 54.1553C7.28037 62.3672 13.3988 69.1592 21.2129 73.388" stroke="black" stroke-width="2" stroke-linecap="round" stroke-linejoin="round"/>
</g>
<g id="Vector_5">
<path d="M1.00004 39.5C0.986574 29.6282 4.77856 20.131 11.5875 12.9831L1.00004 39.5ZM39.5 1.00003C34.277 0.993613 29.1076 2.05304 24.3082 4.11349C19.5087 6.17393 15.1802 9.19205 11.5875 12.9831M54.9 4.20323C59.2844 6.12156 63.2735 8.83908 66.6637 12.217C70.2619 15.7902 73.1164 20.0411 75.0622 24.724C77.008 29.4069 78.0065 34.429 78 39.5C78 44.2393 77.1433 48.7804 75.5745 52.975M39.5 78C44.5426 78.0065 49.5371 77.0192 54.198 75.0945C58.8589 73.1699 63.0948 70.3455 66.6637 66.783" fill="white"/>
<path d="M1.00004 39.5C0.986574 29.6282 4.77856 20.131 11.5875 12.9831C15.1802 9.19205 19.5087 6.17393 24.3082 4.11349C29.1076 2.05304 34.277 0.993613 39.5 1.00003M54.9 4.20323C59.2844 6.12156 63.2735 8.83908 66.6637 12.217C70.2619 15.7902 73.1164 20.0411 75.0622 24.724C77.008 29.4069 78.0065 34.4289 78 39.5C78 44.2393 77.1434 48.7804 75.5745 52.975M39.5 78C44.5426 78.0065 49.5371 77.0192 54.198 75.0945C58.8589 73.1699 63.0948 70.3455 66.6637 66.783" stroke="black" stroke-width="2" stroke-linecap="round" stroke-linejoin="round"/>
</g>
</g>
</g>
</mask>
<g mask="url(#mask0_521_143)">
<path id="Vector_6" d="M-6.7002 -6.7002H85.6997V85.6997H-6.7002V-6.7002Z" fill="black"/>
</g>
</g>
</g>
</svg>
