<svg width="80" height="80" viewBox="0 0 80 80" fill="none" xmlns="http://www.w3.org/2000/svg">
<g id="pajamas:github" clip-path="url(#clip0_521_122)">
<path id="Vector" fill-rule="evenodd" clip-rule="evenodd" d="M39.8799 0C29.3035 0.00136272 19.1607 4.32048 11.682 12.0075C4.20338 19.6945 0.00132578 30.1199 0 40.991C0 59.0916 11.5 74.4324 27.155 79.9674C29.115 80.2192 29.845 78.9601 29.845 77.9528V70.912C18.84 73.4302 16.395 65.3821 16.395 65.3821C14.68 60.6026 11.99 59.3434 11.99 59.3434C8.31999 56.8303 12.23 56.8303 12.23 56.8303C16.145 57.0821 18.35 61.1062 18.35 61.1062C22.02 67.3916 27.645 65.6288 29.85 64.6266C30.09 61.8617 31.315 60.104 32.295 59.0967C23.485 58.0894 14.19 54.569 14.19 38.7246C14.19 34.202 15.655 30.6764 18.35 27.6597C18.1 26.9042 16.635 22.6335 18.84 17.0984C18.84 17.0984 22.265 16.0911 29.845 21.3743C33.025 20.367 36.4549 20.1152 39.8799 20.1152C43.3049 20.1152 46.7299 20.6188 49.9099 21.3743C57.4949 16.0963 60.9199 17.0984 60.9199 17.0984C63.1199 22.6335 61.6499 26.9042 61.4049 27.9115C64.0994 30.9287 65.5852 34.8809 65.5649 38.9764C65.5649 54.8209 56.2649 58.0894 47.4649 59.0967C48.9299 60.3507 50.1549 62.8638 50.1549 66.6361V77.9528C50.1549 78.9601 50.8849 80.2141 52.8449 79.9674C60.775 77.2166 67.6633 71.9735 72.5362 64.9793C77.4091 57.9851 80.02 49.5936 79.9999 40.991C79.7549 18.3576 61.8999 0 39.8799 0Z" fill="black"/>
</g>
<defs>
<clipPath id="clip0_521_122">
<rect width="80" height="80" fill="white"/>
</clipPath>
</defs>
</svg>
