<svg width="80" height="80" viewBox="0 0 80 80" fill="none" xmlns="http://www.w3.org/2000/svg">
<g id="simple-icons:twitter" clip-path="url(#clip0_521_124)">
<path id="Vector" d="M71.81 19.9048C71.86 20.7706 71.86 21.6405 71.86 22.5144C71.86 49.2138 55.3467 80 25.16 80V79.9877C16.2408 80.0027 7.50648 76.8576 0 70.9279C4.29719 71.5652 8.6543 71.1537 12.8222 69.7167C16.9901 68.2797 20.8869 65.8455 24.29 62.5533C20.8648 62.4734 17.5455 61.0779 14.7963 58.5618C12.047 56.0458 10.0053 52.535 8.95667 48.5204C11.4156 49.104 13.9505 48.9861 16.3667 48.1757C12.6524 47.2515 9.31223 44.7745 6.91244 41.1646C4.51266 37.5547 3.20103 33.0342 3.2 28.3697V28.1153C5.48269 29.6812 8.03792 30.5481 10.65 30.6428C7.17489 27.7865 4.71473 23.4072 3.77033 18.3966C2.82594 13.386 3.4683 8.12074 5.56667 3.67262C9.68869 9.91418 14.831 15.0188 20.6598 18.6551C26.4886 22.2913 32.8735 24.3779 39.4 24.7794C38.587 20.4498 38.955 15.9111 40.4472 11.8648C41.9394 7.81844 44.4727 4.48968 47.6555 2.39294C50.8384 0.296195 54.4937 -0.451805 58.0565 0.264537C61.6193 0.980879 64.8912 3.12168 67.3667 6.35611C71.044 5.4635 74.5703 3.8038 77.7933 1.4487C76.5683 6.12828 74.0036 10.1005 70.5767 12.6258C73.8293 12.1516 77.0057 11.0797 80 9.4458C77.796 13.5029 75.0227 17.0446 71.81 19.9048Z" fill="black"/>
</g>
<defs>
<clipPath id="clip0_521_124">
<rect width="80" height="80" fill="white"/>
</clipPath>
</defs>
</svg>
