<svg width="80" height="80" viewBox="0 0 80 80" fill="none" xmlns="http://www.w3.org/2000/svg">
<g id="wpf:behance" clip-path="url(#clip0_521_126)">
<path id="Vector" d="M60 38.1538C60.6154 39.0769 61.2308 40 61.5385 41.5385H51.6923C51.6923 41.2308 51.6923 40.6154 52 40C52.3077 39.3846 52.3077 39.0769 52.9231 38.4615C53.2308 37.8462 53.8462 37.5385 54.4615 37.2308C55.0769 36.9231 56 36.6154 56.9231 36.6154C58.1538 36.9231 59.3846 37.2308 60 38.1538ZM31.6923 36C32.3077 35.3846 32.9231 34.4615 32.9231 33.2308C32.9231 32.6154 32.9231 32 32.6154 31.3846C32.3077 31.0769 32 30.4615 31.6923 30.4615C31.3846 30.1538 30.7692 30.1538 30.1538 29.8462H22.1538V36.9231H28.9231C29.8462 36.9231 30.7692 36.6154 31.6923 36ZM29.2308 41.2308H22.1538V49.5385H29.2308C29.8462 49.5385 30.4615 49.5385 31.0769 49.2308C31.6923 49.2308 32.3077 48.9231 32.6154 48.6154C32.9231 48.3077 33.5385 48 33.8462 47.3846C34.1538 46.7692 34.1538 46.1538 34.1538 45.5385C34.1538 44 33.8462 42.7692 32.9231 42.1538C32 41.5385 30.7692 41.2308 29.2308 41.2308ZM80 15.0769V64.9231C80 73.2308 73.2308 80 64.9231 80H15.0769C6.76923 80 0 73.2308 0 64.9231V15.0769C0 6.76923 6.76923 0 15.0769 0H64.9231C73.2308 0 80 6.76923 80 15.0769ZM50.4615 29.5385H62.7692V26.4615H50.4615V29.5385ZM40.6154 46.1538C40.6154 44.3077 40.3077 42.7692 39.3846 41.2308C38.4615 40 37.2308 39.0769 35.3846 38.4615C36.6154 37.8462 37.8462 36.9231 38.4615 36C39.0769 35.0769 39.3846 33.8462 39.3846 32.3077C39.3846 30.7692 39.0769 29.8462 38.7692 28.6154C38.1538 27.6923 37.5385 26.7692 36.9231 26.4615C36 25.8462 35.0769 25.5385 33.8462 25.2308C32.3077 24.6154 31.0769 24.6154 29.5385 24.6154H15.3846V54.7692H30.1538C31.3846 54.7692 32.9231 54.4615 34.1538 54.1538C35.3846 53.8462 36.6154 53.2308 37.5385 52.6154C38.4615 52 39.3846 51.0769 40 49.8462C40.3077 48.9231 40.6154 47.6923 40.6154 46.1538ZM51.6923 45.2308H67.3846C67.3846 43.3846 67.3846 41.8462 67.0769 40.3077C66.7692 38.7692 66.1538 37.2308 65.2308 36.3077C64.3077 35.0769 63.0769 34.1538 61.8462 33.5385C60.3077 32.9231 58.7692 32.3077 56.9231 32.3077C55.3846 32.3077 53.8462 32.6154 52.3077 33.2308C51.0769 33.8462 49.8462 34.7692 48.6154 35.6923C47.6923 36.6154 46.7692 37.8462 46.4615 39.3846C45.8462 40.9231 45.5385 42.4615 45.5385 44C45.5385 45.5385 45.8462 47.3846 46.4615 48.6154C47.0769 50.1538 47.6923 51.3846 48.6154 52.3077C49.5385 53.2308 50.7692 54.1538 52 54.7692C53.5385 55.3846 55.0769 55.6923 56.6154 55.6923C59.0769 55.6923 61.2308 55.0769 63.0769 53.8462C64.9231 52.6154 66.1538 50.7692 67.0769 48.3077H61.8462C61.5385 48.9231 61.2308 49.5385 60.3077 50.1538C59.3846 50.7692 58.4615 51.0769 57.2308 51.0769C55.6923 51.0769 54.1538 50.7692 53.2308 49.8462C52.3077 48.6154 51.6923 47.0769 51.6923 45.2308Z" fill="black"/>
</g>
<defs>
<clipPath id="clip0_521_126">
<rect width="80" height="80" fill="white"/>
</clipPath>
</defs>
</svg>
