<svg xmlns="http://www.w3.org/2000/svg" fill="none" viewBox="0 0 303 87">
  <path fill="rgb(17, 24, 39)" d="M100.362 84.736H81.7522V25.861h-18.375v-8.625h55.3598v8.625h-18.375v58.875Zm74.486 0h-48.469v-67.5h48.469v8.625h-29.86v20.8594h23.063v8.5781h-23.063V76.111h29.86v8.625Zm69.33-50.7656-8.016 3.375c-.625-2.0313-1.469-3.8906-2.531-5.5781-1.031-1.6875-2.281-3.125-3.75-4.3125-1.438-1.2188-3.078-2.1563-4.922-2.8125-1.844-.6875-3.859-1.0313-6.047-1.0313-2.344 0-4.5.3906-6.469 1.1719-1.937.75-3.687 1.7969-5.25 3.1406-1.531 1.3438-2.875 2.9063-4.031 4.6875-1.156 1.7813-2.125 3.6875-2.906 5.7188-.781 2-1.359 4.0781-1.734 6.2343-.375 2.1563-.563 4.2657-.563 6.3282 0 3.2812.375 6.5468 1.125 9.7968.781 3.25 2 6.1719 3.656 8.7657 1.688 2.5937 3.86 4.7031 6.516 6.3281 2.656 1.5937 5.875 2.3906 9.656 2.3906 2 0 3.891-.3281 5.672-.9844 1.781-.6875 3.391-1.6093 4.828-2.7656 1.469-1.1875 2.75-2.5781 3.844-4.1719 1.094-1.5937 1.969-3.3125 2.625-5.1562l8.109 3.2344c-1.187 2.9687-2.812 5.5781-4.875 7.8281-2.062 2.2187-4.422 4.0625-7.078 5.5312-2.625 1.4688-5.453 2.5625-8.484 3.2813-3 .75-6.031 1.125-9.094 1.125-3.312 0-6.5-.4063-9.562-1.2188-3.032-.8125-5.86-1.9687-8.485-3.4687-2.625-1.5-5.015-3.3125-7.172-5.4375-2.125-2.125-3.953-4.4844-5.484-7.0781-1.5-2.5938-2.672-5.4063-3.516-8.4375-.812-3.0625-1.218-6.25-1.218-9.5625s.406-6.4844 1.218-9.5157c.844-3.0625 2.016-5.8906 3.516-8.4843 1.531-2.625 3.359-5 5.484-7.125 2.157-2.125 4.547-3.9375 7.172-5.4375s5.453-2.6563 8.485-3.4688c3.062-.8125 6.25-1.2187 9.562-1.2187 3.188 0 6.297.375 9.328 1.125 3.063.75 5.906 1.8906 8.531 3.4218 2.625 1.5 4.954 3.4063 6.985 5.7188 2.062 2.2812 3.687 4.9687 4.875 8.0625Zm40.174 50.7656h-18.61V25.861h-18.375v-8.625h55.36v8.625h-18.375v58.875ZM20.7726 86.4c-2.048 0-3.456-.6827-4.224-2.048-.768-1.4507-1.024-2.9867-.768-4.608.3413-2.2187.9386-4.0107 1.792-5.376.9386-1.3653 2.048-2.8587 3.328-4.48 1.024-1.4507 2.0053-2.944 2.944-4.48.9386-1.536 1.0666-2.432.384-2.688-.4267.3413-1.152.7253-2.176 1.152-1.024.4267-2.0907.64-3.2.64-.9387 0-1.8774-.2133-2.816-.64-.8534-.4267-1.4934-1.1947-1.92-2.304-1.1094 2.048-2.4747 4.3093-4.096 6.784-1.53603 2.3893-3.11469 4.6933-4.73603 6.912-1.536 2.2187-2.90133 4.0533-4.096 5.504-.341332.3413-.639998.4693-.895999.384-.341333-.0853-.384-.2987-.128-.64 1.962669-2.4747 4.223999-5.5893 6.783999-9.344 2.56-3.7547 4.90663-7.808 7.04003-12.16 2.1333-4.4373 3.456-8.7467 3.968-12.928 2.9013 1.3653 4.352 3.1147 4.352 5.248 0 1.6213-.6827 3.2853-2.048 4.992-1.3654 1.6213-3.1574 3.1147-5.376 4.48 1.1093 1.6213 2.5173 2.432 4.224 2.432 1.28 0 2.56-.384 3.84-1.152 1.3653-.8533 2.432-1.792 3.2-2.816.6826-.768 1.2373-1.28 1.664-1.536.512-.256.9386-.384 1.28-.384 1.1946 0 2.048.384 2.56 1.152.5973.6827.6826 1.4507.256 2.304-1.536 2.1333-3.2854 4.7787-5.248 7.936-1.9627 3.072-3.712 5.9733-5.248 8.704-.256.3413-.5974 1.1093-1.024 2.304-.4267 1.1947-.64 2.2613-.64 3.2 0 1.28.512 1.92 1.536 1.92 1.1946 0 2.56-.6827 4.096-2.048 1.536-1.4507 3.072-3.1573 4.608-5.12 1.536-2.048 2.9013-4.0107 4.096-5.888 1.28-1.8773 2.2186-3.2427 2.816-4.096.4266-.768.768-1.152 1.024-1.152.0853 0 .128.0853.128.256 0 .3413-.128.7253-.384 1.152-1.28 2.1333-2.6454 4.2667-4.096 6.4-1.4507 2.1333-2.9014 4.1813-4.352 6.144-1.3654 1.792-2.7734 3.2-4.224 4.224-1.3654 1.1093-2.7734 1.664-4.224 1.664Z"/>
  <path fill="rgb(17, 24, 39)" d="M37.7736 86.144c-1.28 0-2.4747-.4267-3.584-1.28-1.1094-.8533-2.0054-1.8347-2.688-2.944-.6827-1.1093-1.024-2.048-1.024-2.816 0-2.9013.896-5.9307 2.688-9.088 1.792-3.2427 4.0533-6.272 6.784-9.088 2.816-2.816 5.76-5.0773 8.832-6.784 3.072-1.792 5.9306-2.688 8.576-2.688.4266 0 .8533.0853 1.28.256.4266.1707.9813.5547 1.664 1.152 3.4133-7.0827 7.168-14.0373 11.264-20.864 4.096-6.912 8.064-12.6293 11.904-17.152 3.328-4.0107 6.6986-7.08266 10.112-9.216 3.4986-2.21866 7.0824-3.75467 10.7524-4.608C106.894.341334 109.539 0 112.27 0h1.408c.512 0 .981.042669 1.408.128006.853.085332 1.834.341331 2.944.767998 1.109.426666 1.749.895996 1.92 1.407996.17.34133.17.55467 0 .64-.171.08534-.384.00001-.64-.256-.598-.51199-1.366-.85333-2.304-1.024-.854-.256-1.792-.38399-2.816-.38399-1.622 0-3.243.21333-4.864.64-1.622.42666-2.902.85333-3.84 1.27999-2.816 1.45067-5.7178 3.49867-8.7044 6.144-2.9867 2.56-5.9307 5.504-8.832 8.832-4.1814 4.7787-8.1494 9.984-11.904 15.616-3.6694 5.632-6.9547 11.264-9.856 16.896-2.816 5.632-5.0347 10.88-6.656 15.744-1.536 4.864-2.304 8.96-2.304 12.288v1.536c.0853.4267.1706.8533.256 1.28.256 1.1093.6826 1.8773 1.28 2.304.5973.4267 1.28.64 2.048.64.8533 0 1.664-.1707 2.432-.512.8533-.4267 1.5786-.896 2.176-1.408 1.6213-1.4507 3.456-3.5413 5.504-6.272 2.1333-2.7307 4.1386-5.4613 6.016-8.192.3413-.4267.5546-.5547.64-.384.0853.1707.0426.3413-.128.512-.3414.5973-1.1094 1.792-2.304 3.584-1.1947 1.792-2.56 3.712-4.096 5.76-1.4507 2.048-2.8587 3.7547-4.224 5.12-2.2187 2.2187-4.48 3.328-6.784 3.328-1.7067 0-3.1574-.7253-4.352-2.176-1.1947-1.4507-1.792-3.4987-1.792-6.144 0-.8533.0853-2.2613.256-4.224.1706-1.9627.4266-3.6267.768-4.992-1.9627 3.2427-4.0107 6.2293-6.144 8.96-2.048 2.6453-4.0534 4.7787-6.016 6.4-1.8774 1.536-3.5414 2.304-4.992 2.304Zm-.896-1.664c.768 0 1.6213-.3413 2.56-1.024 1.536-1.1947 3.2426-2.816 5.12-4.864 1.9626-2.048 3.8826-4.224 5.76-6.528 1.9626-2.3893 3.6693-4.6507 5.12-6.784.4266-1.3653 1.024-2.9867 1.792-4.864s1.4506-3.584 2.048-5.12c-1.1094-.1707-2.3894 0-3.84.512-1.3654.4267-2.3467.8107-2.944 1.152-2.304 1.3653-4.736 3.2853-7.296 5.76-2.4747 2.3893-4.6934 4.992-6.656 7.808-1.9627 2.7307-3.4134 5.376-4.352 7.936-.256.5973-.384 1.28-.384 2.048 0 1.024.256 1.9627.768 2.816.5973.768 1.3653 1.152 2.304 1.152Z"/>
</svg>