<svg width="278" height="52" viewBox="0 0 278 52" fill="none" xmlns="http://www.w3.org/2000/svg">
<path d="M99.9837 15.625V49.2188H88.39V15.625H70.1712V6.28125H118.234V15.625H99.9837Z" fill="#FFC804" fill-opacity="0.75"/>
<path d="M124.641 49.2188V6.28125H168.11V15.4375H136.548V22.5312H166.485V31.6875H136.548V40.0625H168.548V49.2188H124.641Z" fill="#FFC804" fill-opacity="0.75"/>
<path d="M225.799 46.2812C224.299 46.9062 222.788 47.4688 221.268 47.9688C219.747 48.4688 218.174 48.8958 216.549 49.25C214.924 49.625 213.205 49.9062 211.393 50.0938C209.601 50.2812 207.674 50.375 205.611 50.375C201.236 50.375 197.205 49.9062 193.518 48.9688C189.851 48.0312 186.684 46.625 184.018 44.75C181.372 42.8542 179.309 40.5 177.83 37.6875C176.351 34.8542 175.611 31.5521 175.611 27.7812C175.611 24.0104 176.351 20.7188 177.83 17.9062C179.309 15.0729 181.372 12.7188 184.018 10.8438C186.684 8.94792 189.851 7.53125 193.518 6.59375C197.205 5.65625 201.236 5.1875 205.611 5.1875C207.674 5.1875 209.601 5.28125 211.393 5.46875C213.205 5.65625 214.924 5.9375 216.549 6.3125C218.174 6.66667 219.747 7.09375 221.268 7.59375C222.788 8.09375 224.299 8.65625 225.799 9.28125V19.7188C224.611 19.0729 223.361 18.4375 222.049 17.8125C220.736 17.1667 219.288 16.5938 217.705 16.0938C216.122 15.5729 214.382 15.1562 212.486 14.8438C210.59 14.5104 208.455 14.3438 206.08 14.3438C202.434 14.3438 199.403 14.7188 196.986 15.4688C194.59 16.2188 192.674 17.2188 191.236 18.4688C189.799 19.7188 188.788 21.1562 188.205 22.7812C187.622 24.3854 187.33 26.0521 187.33 27.7812C187.33 28.9271 187.455 30.0625 187.705 31.1875C187.955 32.2917 188.372 33.3438 188.955 34.3438C189.538 35.3229 190.299 36.2292 191.236 37.0625C192.174 37.8958 193.34 38.6146 194.736 39.2188C196.132 39.8229 197.757 40.3021 199.611 40.6562C201.486 40.9896 203.643 41.1562 206.08 41.1562C208.455 41.1562 210.59 41.0104 212.486 40.7188C214.382 40.4062 216.122 40 217.705 39.5C219.288 39 220.736 38.4375 222.049 37.8125C223.361 37.1667 224.611 36.5104 225.799 35.8438V46.2812Z" fill="#FFC804" fill-opacity="0.75"/>
<path d="M259.394 15.625V49.2188H247.8V15.625H229.581V6.28125H277.644V15.625H259.394Z" fill="#FFC804" fill-opacity="0.75"/>
<path d="M29.4062 24C29.4062 24.125 29.3958 24.3125 29.375 24.5625C29.3542 24.7917 29.3021 25.0312 29.2188 25.2812C29.1354 25.5104 29.0312 25.7188 28.9062 25.9062C28.8021 26.0938 28.6562 26.1875 28.4688 26.1875C28.3438 26.1875 28.1354 26.1875 27.8438 26.1875C27.5521 26.1667 27.2396 26.1458 26.9062 26.125C26.5938 26.1042 26.2917 26.0938 26 26.0938C25.7083 26.0729 25.5 26.0625 25.375 26.0625C21.3958 26.3125 18.0833 27.7708 15.4375 30.4375C12.8333 33.0417 10.5833 36.5208 8.6875 40.875C8.33333 41.7708 7.97917 42.6979 7.625 43.6562C7.29167 44.6146 6.96875 45.625 6.65625 46.6875C6.48958 47.2708 6.36458 47.7917 6.28125 48.25C6.21875 48.6875 6.10417 49.1562 5.9375 49.6562C5.89583 49.8229 5.71875 49.9792 5.40625 50.125C5.09375 50.2917 4.73958 50.4375 4.34375 50.5625C3.96875 50.6875 3.60417 50.7917 3.25 50.875C2.89583 50.9583 2.65625 51 2.53125 51C1.09375 51.0833 0.28125 49.5938 0.09375 46.5312C0.03125 45.6979 0 44.9479 0 44.2812C0.0208333 43.5938 0.0520833 42.9375 0.09375 42.3125C0.135417 41.6667 0.1875 41 0.25 40.3125C0.333333 39.6042 0.416667 38.8125 0.5 37.9375C0.604167 36.8542 0.729167 35.6042 0.875 34.1875C1.02083 32.7708 1.1875 31.3438 1.375 29.9062C1.5625 28.4688 1.76042 27.1042 1.96875 25.8125C2.17708 24.5 2.39583 23.4167 2.625 22.5625C2.85417 21.5833 3.16667 20.8542 3.5625 20.375C3.97917 19.8958 4.58333 19.6354 5.375 19.5938C5.58333 19.5938 5.80208 19.6562 6.03125 19.7812C6.28125 19.8854 6.5 20.0312 6.6875 20.2188C6.89583 20.4062 7.0625 20.6042 7.1875 20.8125C7.33333 21.0208 7.41667 21.2083 7.4375 21.375C7.45833 21.8958 7.44792 22.4688 7.40625 23.0938C7.36458 23.6979 7.29167 24.3333 7.1875 25C7.08333 25.6458 6.95833 26.3021 6.8125 26.9688C6.66667 27.6354 6.52083 28.2708 6.375 28.875C6.08333 30.0625 5.85417 31.0833 5.6875 31.9375C5.54167 32.7708 5.41667 33.5833 5.3125 34.375C5.20833 35.1667 5.10417 36.0208 5 36.9375C4.89583 37.8333 4.76042 38.9479 4.59375 40.2812C4.94792 39.4896 5.25 38.8125 5.5 38.25C5.77083 37.6875 6.01042 37.1979 6.21875 36.7812C6.42708 36.3438 6.61458 35.9583 6.78125 35.625C6.96875 35.2917 7.16667 34.9479 7.375 34.5938C7.58333 34.2188 7.8125 33.8125 8.0625 33.375C8.3125 32.9375 8.625 32.4062 9 31.7812C10.4583 29.3646 12.0208 27.3958 13.6875 25.875C15.3542 24.3333 16.9583 23.2292 18.5 22.5625C20.25 21.7292 21.6875 21.2812 22.8125 21.2188C23.3542 21.1979 24 21.2292 24.75 21.3125C25.5 21.3958 26.2188 21.5521 26.9062 21.7812C27.5938 22.0104 28.1771 22.3125 28.6562 22.6875C29.1562 23.0417 29.4062 23.4792 29.4062 24Z" fill="#FFC804" fill-opacity="0.75"/>
<path d="M75.4388 38.0938C75.4388 38.2188 75.3867 38.4167 75.2825 38.6875C75.1992 38.9583 75.095 39.2396 74.97 39.5312C74.845 39.8021 74.7096 40.0729 74.5638 40.3438C74.4388 40.5938 74.3346 40.7708 74.2513 40.875C73.4388 42.0625 72.595 43.1562 71.72 44.1562C70.845 45.1562 69.9179 46.0312 68.9388 46.7812C67.9804 47.5104 66.9492 48.0833 65.845 48.5C64.7617 48.8958 63.595 49.0938 62.345 49.0938C61.845 49.0938 61.3138 48.9792 60.7513 48.75C60.2096 48.5208 59.6783 48.1979 59.1575 47.7812C58.6575 47.3646 58.1783 46.875 57.72 46.3125C57.2617 45.75 56.8763 45.1354 56.5638 44.4688C56.1888 43.6771 55.8554 42.7708 55.5638 41.75C55.2929 40.7083 55.0638 39.5938 54.8763 38.4062C54.7096 37.2188 54.5846 35.9792 54.5013 34.6875C54.4179 33.375 54.3763 32.0312 54.3763 30.6562C51.7721 35.5104 48.3971 39.8229 44.2513 43.5938C40.0846 47.3854 35.7721 49.2812 31.3137 49.2812C30.0846 49.2812 29.1471 48.625 28.5012 47.3125C27.8554 46.0208 27.5325 44.6771 27.5325 43.2812C27.5325 41.4062 27.6887 40.0104 28.0012 39.0938C28.8762 36.4271 29.8762 33.9271 31.0012 31.5938C32.1471 29.2604 33.5325 26.9688 35.1575 24.7188C36.22 23.2604 37.4283 21.8021 38.7825 20.3438C40.1575 18.8854 41.4492 17.8438 42.6575 17.2188C44.1575 16.4062 46.3138 16 49.1263 16C50.1054 16 50.9388 16.5417 51.6263 17.625C52.3138 18.7083 52.8346 19.9688 53.1888 21.4062C53.5429 22.9271 53.72 24.1146 53.72 24.9688C54.0325 23.9479 54.3138 22.9167 54.5638 21.875C54.8138 20.8125 55.0325 19.7188 55.22 18.5938C55.4075 17.4688 55.5742 16.2917 55.72 15.0625C55.8867 13.8125 56.0325 12.4792 56.1575 11.0625C56.1992 10.6875 56.2408 10.2083 56.2825 9.625C56.3242 9.04167 56.3763 8.35417 56.4388 7.5625C56.5638 5.9375 56.6888 4.57292 56.8138 3.46875C56.9388 2.34375 57.1054 1.61458 57.3138 1.28125C57.8138 0.427083 58.6888 0 59.9388 0C60.5638 0 61.1783 0.135417 61.7825 0.40625C62.4283 0.65625 62.7513 1.01042 62.7513 1.46875C62.7513 1.71875 62.6992 2.125 62.595 2.6875C62.5117 3.25 62.3867 3.97917 62.22 4.875C62.0533 5.77083 61.8242 6.88542 61.5325 8.21875C61.2617 9.53125 60.9596 11.1042 60.6263 12.9375C60.6054 13.1458 60.5429 13.5625 60.4388 14.1875C60.3346 14.8125 60.22 15.4792 60.095 16.1875C59.97 16.875 59.8554 17.5208 59.7513 18.125C59.6471 18.7083 59.5846 19.0729 59.5638 19.2188C59.2929 20.9062 59.095 22.5 58.97 24C58.845 25.5 58.7825 27.0104 58.7825 28.5312C58.7825 33.8438 59.2096 37.8125 60.0638 40.4375C60.9388 43.0625 62.0533 44.375 63.4075 44.375C64.1992 44.375 64.9596 44.2604 65.6888 44.0312C66.4179 43.7812 67.1367 43.4167 67.845 42.9375C68.5742 42.4583 69.3138 41.8646 70.0638 41.1562C70.8138 40.4271 71.6054 39.5833 72.4388 38.625C72.9179 38.0833 73.3554 37.6042 73.7513 37.1875C74.1471 36.7708 74.5221 36.5625 74.8763 36.5625C75.1054 36.5625 75.2513 36.7396 75.3138 37.0938C75.3971 37.4271 75.4388 37.7604 75.4388 38.0938ZM51.1575 29.625C50.6158 29.5 50.1992 29.2292 49.9075 28.8125C49.6367 28.3958 49.5013 27.9271 49.5013 27.4062C49.5013 26.9896 49.5638 26.375 49.6888 25.5625C49.8138 24.75 49.8763 24.125 49.8763 23.6875C49.8763 23.3125 49.7721 22.8958 49.5638 22.4375C49.3763 21.9583 49.1263 21.5208 48.8138 21.125C48.5013 20.7083 48.1471 20.3646 47.7513 20.0938C47.3763 19.8021 47.0013 19.6562 46.6263 19.6562C45.5221 19.6562 44.0221 20.8125 42.1263 23.125C41.1679 24.3125 40.2825 25.4479 39.47 26.5312C38.6783 27.6146 37.9492 28.6875 37.2825 29.75C36.5533 30.8958 35.9283 31.9479 35.4075 32.9062C34.9075 33.8646 34.4804 34.7188 34.1263 35.4688C32.8971 38.1146 32.2825 40.1979 32.2825 41.7188C32.2825 43.6562 32.9388 44.625 34.2513 44.625C35.4179 44.625 37.0221 43.9479 39.0638 42.5938C41.1679 41.1562 42.7929 39.8646 43.9388 38.7188C45.1263 37.4688 46.1158 36.4167 46.9075 35.5625C47.6992 34.7083 48.3242 34.0208 48.7825 33.5C49.2408 32.9792 49.6575 32.3958 50.0325 31.75C50.4283 31.1042 50.8033 30.3958 51.1575 29.625Z" fill="#FFC804" fill-opacity="0.75"/>
</svg>
