<svg width="123" height="88" viewBox="0 0 123 88" fill="none" xmlns="http://www.w3.org/2000/svg">
<g filter="url(#filter0_d_521_411)">
<path d="M20.7726 86.4C18.7246 86.4 17.3166 85.7173 16.5486 84.352C15.7806 82.9013 15.5246 81.3653 15.7806 79.744C16.1219 77.5253 16.7192 75.7333 17.5726 74.368C18.5112 73.0027 19.6206 71.5093 20.9006 69.888C21.9246 68.4373 22.9059 66.944 23.8446 65.408C24.7832 63.872 24.9112 62.976 24.2286 62.72C23.8019 63.0613 23.0766 63.4453 22.0526 63.872C21.0286 64.2987 19.9619 64.512 18.8526 64.512C17.9139 64.512 16.9752 64.2987 16.0366 63.872C15.1832 63.4453 14.5432 62.6773 14.1166 61.568C13.0072 63.616 11.6419 65.8773 10.0206 68.352C8.48457 70.7413 6.90591 73.0453 5.28457 75.264C3.74857 77.4827 2.38324 79.3173 1.18857 80.768C0.847238 81.1093 0.548572 81.2373 0.292571 81.152C-0.0487619 81.0667 -0.0914286 80.8533 0.164571 80.512C2.12724 78.0373 4.38857 74.9227 6.94857 71.168C9.50857 67.4133 11.8552 63.36 13.9886 59.008C16.1219 54.5707 17.4446 50.2613 17.9566 46.08C20.8579 47.4453 22.3086 49.1947 22.3086 51.328C22.3086 52.9493 21.6259 54.6133 20.2606 56.32C18.8952 57.9413 17.1032 59.4347 14.8846 60.8C15.9939 62.4213 17.4019 63.232 19.1086 63.232C20.3886 63.232 21.6686 62.848 22.9486 62.08C24.3139 61.2267 25.3806 60.288 26.1486 59.264C26.8312 58.496 27.3859 57.984 27.8126 57.728C28.3246 57.472 28.7512 57.344 29.0926 57.344C30.2872 57.344 31.1406 57.728 31.6526 58.496C32.2499 59.1787 32.3352 59.9467 31.9086 60.8C30.3726 62.9333 28.6232 65.5787 26.6606 68.736C24.6979 71.808 22.9486 74.7093 21.4126 77.44C21.1566 77.7813 20.8152 78.5493 20.3886 79.744C19.9619 80.9387 19.7486 82.0053 19.7486 82.944C19.7486 84.224 20.2606 84.864 21.2846 84.864C22.4792 84.864 23.8446 84.1813 25.3806 82.816C26.9166 81.3653 28.4526 79.6587 29.9886 77.696C31.5246 75.648 32.8899 73.6853 34.0846 71.808C35.3646 69.9307 36.3032 68.5653 36.9006 67.712C37.3272 66.944 37.6686 66.56 37.9246 66.56C38.0099 66.56 38.0526 66.6453 38.0526 66.816C38.0526 67.1573 37.9246 67.5413 37.6686 67.968C36.3886 70.1013 35.0232 72.2347 33.5726 74.368C32.1219 76.5013 30.6712 78.5493 29.2206 80.512C27.8552 82.304 26.4472 83.712 24.9966 84.736C23.6312 85.8453 22.2232 86.4 20.7726 86.4Z" fill="#EC7707"/>
<path d="M37.7736 86.144C36.4936 86.144 35.2989 85.7173 34.1896 84.864C33.0802 84.0107 32.1842 83.0294 31.5016 81.92C30.8189 80.8107 30.4776 79.872 30.4776 79.104C30.4776 76.2027 31.3736 73.1733 33.1656 70.016C34.9576 66.7733 37.2189 63.744 39.9496 60.928C42.7656 58.112 45.7096 55.8507 48.7816 54.144C51.8536 52.352 54.7122 51.456 57.3576 51.456C57.7842 51.456 58.2109 51.5413 58.6376 51.712C59.0642 51.8827 59.6189 52.2667 60.3016 52.864C63.7149 45.7813 67.4696 38.8267 71.5656 32C75.6616 25.088 79.6296 19.3707 83.4696 14.848C86.7976 10.8373 90.1682 7.76534 93.5816 5.632C97.0802 3.41334 100.664 1.87733 104.334 1.024C106.894 0.341334 109.539 0 112.27 0C112.696 0 113.166 0 113.678 0C114.19 0 114.659 0.0426687 115.086 0.128006C115.939 0.213338 116.92 0.46933 118.03 0.895996C119.139 1.32266 119.779 1.792 119.95 2.304C120.12 2.64533 120.12 2.85867 119.95 2.944C119.779 3.02934 119.566 2.94401 119.31 2.688C118.712 2.17601 117.944 1.83467 117.006 1.664C116.152 1.408 115.214 1.28 114.19 1.28C112.568 1.28 110.947 1.49335 109.326 1.92001C107.704 2.34668 106.424 2.77335 105.486 3.20001C102.67 4.65068 99.7682 6.69866 96.7816 9.34399C93.7949 11.904 90.8509 14.848 87.9496 18.176C83.7682 22.9547 79.8002 28.16 76.0456 33.792C72.3762 39.424 69.0909 45.056 66.1896 50.688C63.3736 56.32 61.1549 61.568 59.5336 66.432C57.9976 71.296 57.2296 75.392 57.2296 78.72C57.2296 79.232 57.2296 79.744 57.2296 80.256C57.3149 80.6827 57.4002 81.1093 57.4856 81.536C57.7416 82.6453 58.1682 83.4133 58.7656 83.84C59.3629 84.2667 60.0456 84.48 60.8136 84.48C61.6669 84.48 62.4776 84.3093 63.2456 83.968C64.0989 83.5413 64.8242 83.072 65.4216 82.56C67.0429 81.1093 68.8776 79.0187 70.9256 76.288C73.0589 73.5573 75.0642 70.8267 76.9416 68.096C77.2829 67.6693 77.4962 67.5413 77.5816 67.712C77.6669 67.8827 77.6242 68.0533 77.4536 68.224C77.1122 68.8213 76.3442 70.016 75.1496 71.808C73.9549 73.6 72.5896 75.52 71.0536 77.568C69.6029 79.616 68.1949 81.3227 66.8296 82.688C64.6109 84.9067 62.3496 86.016 60.0456 86.016C58.3389 86.016 56.8882 85.2907 55.6936 83.84C54.4989 82.3893 53.9016 80.3413 53.9016 77.696C53.9016 76.8427 53.9869 75.4347 54.1576 73.472C54.3282 71.5093 54.5842 69.8453 54.9256 68.48C52.9629 71.7227 50.9149 74.7093 48.7816 77.44C46.7336 80.0853 44.7282 82.2187 42.7656 83.84C40.8882 85.376 39.2242 86.144 37.7736 86.144ZM36.8776 84.48C37.6456 84.48 38.4989 84.1387 39.4376 83.456C40.9736 82.2613 42.6802 80.64 44.5576 78.592C46.5202 76.544 48.4402 74.368 50.3176 72.064C52.2802 69.6747 53.9869 67.4133 55.4376 65.28C55.8642 63.9147 56.4616 62.2933 57.2296 60.416C57.9976 58.5387 58.6802 56.832 59.2776 55.296C58.1682 55.1253 56.8882 55.296 55.4376 55.808C54.0722 56.2347 53.0909 56.6187 52.4936 56.96C50.1896 58.3253 47.7576 60.2453 45.1976 62.72C42.7229 65.1093 40.5042 67.712 38.5416 70.528C36.5789 73.2587 35.1282 75.904 34.1896 78.464C33.9336 79.0613 33.8056 79.744 33.8056 80.512C33.8056 81.536 34.0616 82.4747 34.5736 83.328C35.1709 84.096 35.9389 84.48 36.8776 84.48Z" fill="#EC7707"/>
</g>
<defs>
<filter id="filter0_d_521_411" x="0" y="0" width="122.077" height="87.3999" filterUnits="userSpaceOnUse" color-interpolation-filters="sRGB">
<feFlood flood-opacity="0" result="BackgroundImageFix"/>
<feColorMatrix in="SourceAlpha" type="matrix" values="0 0 0 0 0 0 0 0 0 0 0 0 0 0 0 0 0 0 127 0" result="hardAlpha"/>
<feOffset dx="2" dy="1"/>
<feComposite in2="hardAlpha" operator="out"/>
<feColorMatrix type="matrix" values="0 0 0 0 0.964706 0 0 0 0 0.6 0 0 0 0 0.184314 0 0 0 0.5 0"/>
<feBlend mode="hard-light" in2="BackgroundImageFix" result="effect1_dropShadow_521_411"/>
<feBlend mode="normal" in="SourceGraphic" in2="effect1_dropShadow_521_411" result="shape"/>
</filter>
</defs>
</svg>
